PathFileType	4	(X/Y/Z)	s04c0103.trc
DataRate	CameraRate	NumFrames	NumMarkers	Units	OrigDataRate	OrigDataStartFrame	OrigNumFrames
200	200	4	50	mm	200	1750	2000
Frame#	Time	racr			lacr			c7			jug			rlel			rdr			llel			ldr			s2			lic			ric			lasi			rasi			rpsi			lpsi			rgt			lgt			rth1			rth2			rth3			rth4			rlfc			rmfc			rsh1			rsh2			rsh3			rsh4			rlmal			rmmal			rcal			rtoe			rmt5			lth1			lth2			lth4			lth3			llfc			lmfc			lsh1			lsh2			lsh3			lsh4			llmal			lmmal			lcal			ltoe			lmt5			SBIKE			LBIKE			RBIKE			
		X1	Y1	Z1	X2	Y2	Z2	X3	Y3	Z3	X4	Y4	Z4	X5	Y5	Z5	X6	Y6	Z6	X7	Y7	Z7	X8	Y8	Z8	X9	Y9	Z9	X10	Y10	Z10	X11	Y11	Z11	X12	Y12	Z12	X13	Y13	Z13	X14	Y14	Z14	X15	Y15	Z15	X16	Y16	Z16	X17	Y17	Z17	X18	Y18	Z18	X19	Y19	Z19	X20	Y20	Z20	X21	Y21	Z21	X22	Y22	Z22	X23	Y23	Z23	X24	Y24	Z24	X25	Y25	Z25	X26	Y26	Z26	X27	Y27	Z27	X28	Y28	Z28	X29	Y29	Z29	X30	Y30	Z30	X31	Y31	Z31	X32	Y32	Z32	X33	Y33	Z33	X34	Y34	Z34	X35	Y35	Z35	X36	Y36	Z36	X37	Y37	Z37	X38	Y38	Z38	X39	Y39	Z39	X40	Y40	Z40	X41	Y41	Z41	X42	Y42	Z42	X43	Y43	Z43	X44	Y44	Z44	X45	Y45	Z45	X46	Y46	Z46	X47	Y47	Z47	X48	Y48	Z48	X49	Y49	Z49	X50	Y50	Z50	
1750	8.7500	427.096759	1405.663351	-99.520293	460.143924	1398.668493	-398.448620	426.741181	1472.934877	-248.317542	421.862055	1321.119724	-253.566041	500.591021	1113.488244	-8.220449	694.670190	908.543691	-115.557469	496.194887	1131.035733	-528.298130	694.000460	904.127049	-470.205240	-90.328702	1155.124167	-297.699352	70.933957	1185.612819	-441.039173	47.083608	1182.690526	-122.174601	112.914793	1138.119495	-395.358063	99.787822	1142.506041	-165.076528	-71.025671	1202.114790	-251.886307	-66.812042	1206.262732	-329.913524	11.723407	1121.712156	-103.726340	40.273572	1079.182355	-470.855276	150.437762	1044.523504	-91.481190	236.817485	1028.174804	-100.268081	304.010846	975.431725	-101.021605	249.133337	1057.794420	-120.353612	422.079663	888.779223	-125.363313	411.195404	865.358179	-238.309955	379.423441	771.972555	-103.633639	374.013064	681.518411	-117.310141	323.173423	612.159632	-125.478800	405.594278	674.992665	-139.796409	290.366821	463.864641	-135.612672	313.365063	470.981751	-219.746992	218.622916	439.751462	-175.689985	514.692159	384.845971	-166.580815	445.502554	371.024879	-110.914996	97.493458	1002.353096	-484.931665	171.298354	957.071063	-487.661043	196.943334	980.918412	-476.918137	213.950174	878.689179	-491.377585	295.541406	747.002304	-466.891899	322.167503	717.439552	-358.611515	233.778070	646.628140	-489.830782	196.693645	570.728010	-466.978458	124.026708	519.519519	-463.465379	219.625994	556.566627	-438.435543	25.713957	410.619116	-453.428538	24.840128	414.038572	-364.814187	-52.129424	434.760962	-410.588455	188.192584	251.035577	-415.453571	108.040621	259.602957	-476.414972	-185.910452	929.809099	-286.970329	-17.522813	79.102684	-485.548817	-17.501448	79.244200	-84.825954	
1751	8.7550	427.002117	1406.016771	-100.000642	459.621537	1398.746064	-399.045059	426.449884	1473.114947	-248.771368	421.668136	1321.331069	-253.945226	501.363164	1114.147828	-8.463279	694.801599	908.329134	-115.577010	496.126062	1131.138309	-528.531991	693.965285	904.184301	-470.218782	-90.753038	1154.995058	-298.078426	71.149368	1185.359133	-440.959014	47.532963	1181.963978	-122.009680	113.341953	1137.984153	-395.182601	100.542137	1141.627189	-164.844975	-70.768678	1201.370626	-251.587737	-66.519752	1205.657720	-330.097882	12.343415	1119.930838	-104.059055	41.333209	1079.207024	-470.736231	150.591721	1041.023710	-90.901624	236.592726	1022.906127	-99.995100	302.889811	968.848540	-101.066728	249.546819	1052.329195	-119.717714	419.287450	880.351009	-125.399066	408.582957	857.028952	-238.665104	376.772290	763.304567	-103.480403	372.518263	672.818076	-117.275074	322.080221	602.870148	-125.364585	403.910364	666.465507	-139.432194	290.555048	454.559842	-135.502712	313.387045	461.885129	-219.631180	218.885566	429.558343	-175.558329	515.673319	378.149153	-166.472334	446.655492	363.443304	-110.746690	99.470884	1003.381617	-484.702841	174.038248	958.998924	-486.878069	199.204691	982.969929	-475.607464	217.696904	881.309769	-491.064769	300.440718	750.554960	-466.351726	326.422346	720.973501	-357.950762	237.690861	651.285426	-489.189361	199.371599	575.939346	-466.443735	125.917793	525.914501	-463.099593	221.993336	561.561655	-437.695959	25.807102	418.743490	-453.338738	24.945564	422.236891	-364.696915	-51.902562	443.729488	-410.605153	186.518802	257.688894	-415.462921	106.550277	267.037467	-476.380839	-185.857825	929.863559	-287.219337	-17.516866	79.080878	-485.553431	-17.497863	79.233926	-84.819486	
1752	8.7600	426.964363	1406.336723	-100.400628	460.131780	1399.471656	-400.964790	426.152619	1473.294588	-249.229853	421.527993	1321.537448	-254.312315	502.155684	1114.711804	-8.635370	694.904483	908.153755	-115.601656	496.067210	1131.220388	-528.737686	693.926070	904.262599	-470.178626	-90.454593	1154.659045	-297.892998	71.404797	1185.146389	-440.866224	48.239634	1181.187353	-121.765045	113.757190	1137.879060	-395.027165	101.414518	1140.978566	-164.604008	-70.390558	1200.713786	-251.313222	-66.233881	1204.895285	-329.741791	13.021620	1118.293112	-104.370727	42.382801	1079.217220	-470.585829	150.608237	1036.852335	-90.846158	236.307424	1017.250938	-99.720331	301.570117	961.966103	-101.097854	249.939951	1046.738779	-119.114212	416.419906	871.847827	-125.390574	405.710658	848.708906	-238.786284	374.090138	754.450799	-103.326280	370.614929	663.907711	-117.049415	320.858658	593.545328	-125.204687	402.109923	657.848421	-139.201623	290.546630	445.131865	-135.475250	313.153937	452.730347	-219.535422	218.972789	419.354577	-175.312597	516.291152	371.234889	-166.237130	447.469063	355.681447	-110.543163	101.499740	1004.329748	-484.342598	176.653897	961.007085	-486.274185	201.456426	985.223958	-474.651886	221.391010	883.913782	-490.627234	305.309376	754.111917	-465.786654	330.674212	724.604675	-357.258433	241.519949	655.960394	-488.521946	201.984514	581.323272	-465.860145	127.789632	532.328526	-462.729256	224.260665	566.634888	-436.941373	26.012367	426.866147	-453.274512	25.756280	430.137934	-364.773422	-51.536552	452.618107	-410.593152	185.246730	264.544695	-415.392656	105.332490	274.722351	-476.409784	-185.812878	929.954310	-287.556636	-17.517431	79.056875	-485.555810	-17.497809	79.240289	-84.843962	
1753	8.7650	427.003681	1406.629497	-100.824653	459.817620	1399.636200	-401.729699	425.884056	1473.513723	-249.747201	421.389481	1321.806263	-254.693356	502.850646	1115.303098	-8.863933	695.011697	908.007109	-115.595471	496.004452	1131.261429	-528.890535	693.873352	904.353657	-470.097180	-90.211821	1154.519607	-297.422269	71.551717	1184.804306	-440.587190	48.951276	1180.465521	-121.603479	114.198902	1137.806223	-394.869546	102.291555	1140.207704	-164.521211	-70.045587	1200.261084	-251.017744	-65.903902	1204.570928	-329.315312	13.730601	1116.702098	-104.712817	43.401638	1079.269014	-470.437498	150.816322	1033.193800	-90.224756	236.015181	1011.559339	-99.370729	300.117039	954.906400	-101.176007	250.225760	1040.912337	-118.424532	413.367757	863.209805	-125.401258	402.774160	840.014617	-238.518931	371.338476	745.471981	-103.107686	368.721476	654.867027	-116.874585	319.619174	584.131880	-124.808527	400.177790	649.138750	-139.034431	290.272975	435.647970	-135.446316	312.844464	443.709247	-219.327046	218.818141	409.705432	-174.505332	516.559063	364.144366	-165.987411	447.992660	347.780965	-110.390718	103.454606	1005.296790	-483.964814	179.165356	962.941992	-485.698546	203.586782	987.482117	-473.756937	224.981650	886.539513	-490.295207	310.143610	757.996593	-465.224545	334.962653	728.395488	-356.618291	245.317715	660.831474	-487.949618	204.750883	586.811996	-465.303880	129.724102	538.921278	-462.457891	226.613317	571.665595	-436.367574	26.357144	435.147258	-453.212062	26.107260	438.585606	-364.645329	-51.084108	461.433692	-410.426885	184.287757	271.797965	-415.399102	104.538191	282.567300	-476.418202	-185.763498	929.930521	-287.564661	-17.526692	79.060064	-485.565475	-17.500851	79.234159	-84.829966	
